<!-- Icon made by <a href="https://www.flaticon.com/authors/freepik" title="Freepik">Freepik</a> from <a href="https://www.flaticon.com/" title="Flaticon"> www.flaticon.com</a> -->
<svg enable-background="new 0 0 512 512" height="512" viewBox="0 0 512 512" width="512" xmlns="http://www.w3.org/2000/svg"><path d="m101 410s0-.014 0-.029zm69.136-344.387c25.582-17.149 54.768-26.001 84.408-25.599 80.756 1.094 146.456 67.658 146.456 148.382 0 30.182-9.464 59.612-27.368 85.111-6.347 9.04-4.165 21.514 4.875 27.861 3.496 2.455 7.504 3.633 11.475 3.633 6.295 0 12.493-2.965 16.386-8.509 22.656-32.266 34.632-69.645 34.632-108.096 0-49.871-19.308-96.879-54.367-132.363-35.022-35.447-81.74-55.34-131.546-56.015-37.777-.519-74.868 10.681-107.223 32.37-9.175 6.15-11.627 18.574-5.477 27.749s18.575 11.626 27.749 5.476zm336.006 440.529c-3.905 3.905-9.023 5.858-14.142 5.858s-10.237-1.953-14.142-5.858l-139.513-139.513c-16.935 20.951-29.631 45.687-37.093 72.522-1.138 4.091-2.577 8.084-4.276 11.871-16.653 37.098-53.389 60.976-93.706 60.978-.21 0-.416 0-.626-.002-55.273-.339-100.804-46.775-101.644-101.998.095-34.827 28.386-64 63.21-64 5.731 0 11.095-2.25 15.103-6.335 3.765-3.837 5.783-8.832 5.684-14.063-.112-5.871-2.795-11.376-7.36-15.106-20.741-16.945-32.637-41.935-32.637-68.565v-56.931c0-.133.34-7.455.758-10.958l-33.727-33.727c-4.988 14.472-7.73 29.706-8.035 45.053-.217 10.908-9.127 19.603-19.988 19.603-.135 0-.27-.001-.405-.004-11.043-.22-19.818-9.35-19.599-20.394.514-25.878 6.483-51.501 17.336-74.949l-75.482-75.482c-7.811-7.811-7.811-20.474 0-28.284s20.474-7.811 28.284 0l472 472c7.811 7.81 7.811 20.474 0 28.284zm-196.216-167.932-124.926-124.926v28.647c0 14.572 6.54 28.272 17.943 37.588 13.673 11.171 21.708 27.688 22.045 45.318.307 16.058-5.773 31.272-17.122 42.84-11.423 11.645-27.335 18.323-43.656 18.323-12.828 0-23.175 11.172-23.21 24 .601 33.561 28.262 61.792 61.888 61.999.125 0 .255.001.38.001 24.585 0 47.012-14.628 57.214-37.357.879-1.959 1.63-4.049 2.231-6.21 9.317-33.501 25.5-64.343 47.213-90.223zm-208.926 71.761c-.001-.019-.001-.029 0 0zm250.493-181.09c5.645-13.167 8.507-27.126 8.507-41.489 0-28.444-11.012-55.254-31.007-75.492-19.972-20.214-46.615-31.559-75.019-31.944-16.107-.208-31.688 3.046-46.276 9.703-10.049 4.585-14.478 16.449-9.892 26.498 4.585 10.049 16.448 14.477 26.498 9.893 9.168-4.183 18.983-6.237 29.128-6.097 36.705.497 66.568 30.75 66.568 67.439 0 8.914-1.773 17.57-5.271 25.728-4.353 10.152.349 21.91 10.501 26.263 2.57 1.102 5.242 1.623 7.872 1.623 7.757-.001 15.14-4.543 18.391-12.125z"/></svg>
